REM DIRINDEX 1\2,1\3,1\4,1\5
REM DIRNAME folder01,folder02,folder03,folder04,folder05
TITLE ""
FILE "Round-05-106-107.mp3" MP3
  TRACK 01 AUDIO
    TITLE "0:"
    INDEX 01 00:00:00
  TRACK 02 AUDIO
    TITLE "2:cjc093_1256"
    INDEX 01 00:00:01
  TRACK 03 AUDIO
    TITLE "0:"
    INDEX 01 00:01:17
  TRACK 04 AUDIO
    TITLE "3:cjc093_1257"
    INDEX 01 00:01:50
  TRACK 05 AUDIO
    TITLE "0:"
    INDEX 01 00:03:17
  TRACK 06 AUDIO
    TITLE "4:cjc093_1258"
    INDEX 01 00:03:37
  TRACK 07 AUDIO
    TITLE "0:"
    INDEX 01 00:07:05
  TRACK 08 AUDIO
    TITLE "2:cjc093_1259"
    INDEX 01 00:08:23
  TRACK 09 AUDIO
    TITLE "0:"
    INDEX 01 00:09:36
  TRACK 10 AUDIO
    TITLE "3:cjc093_1260"
    INDEX 01 00:10:06
  TRACK 11 AUDIO
    TITLE "0:"
    INDEX 01 00:12:67
  TRACK 12 AUDIO
    TITLE "4:cjc093_1261"
    INDEX 01 00:13:37
  TRACK 13 AUDIO
    TITLE "0:"
    INDEX 01 00:16:61
  TRACK 14 AUDIO
    TITLE "2:cjc093_1262"
    INDEX 01 00:17:70
  TRACK 15 AUDIO
    TITLE "0:"
    INDEX 01 00:18:72
  TRACK 16 AUDIO
    TITLE "3:cjc093_1263"
    INDEX 01 00:19:48
  TRACK 17 AUDIO
    TITLE "0:"
    INDEX 01 00:20:57
  TRACK 18 AUDIO
    TITLE "4:cjc093_1264"
    INDEX 01 00:21:19
  TRACK 19 AUDIO
    TITLE "0:"
    INDEX 01 00:23:59
  TRACK 20 AUDIO
    TITLE "2:cjc093_1265"
    INDEX 01 00:24:71
  TRACK 21 AUDIO
    TITLE "0:"
    INDEX 01 00:25:74
  TRACK 22 AUDIO
    TITLE "3:cjc093_1266"
    INDEX 01 00:26:44
  TRACK 23 AUDIO
    TITLE "0:"
    INDEX 01 00:28:60
  TRACK 24 AUDIO
    TITLE "4:cjc093_1267"
    INDEX 01 00:29:01
  TRACK 25 AUDIO
    TITLE "0:"
    INDEX 01 00:30:52
  TRACK 26 AUDIO
    TITLE "3:cjc093_1268"
    INDEX 01 00:31:49
  TRACK 27 AUDIO
    TITLE "0:"
    INDEX 01 00:33:26
  TRACK 28 AUDIO
    TITLE "4:cjc093_1269"
    INDEX 01 00:33:73
  TRACK 29 AUDIO
    TITLE "0:"
    INDEX 01 00:36:29
  TRACK 30 AUDIO
    TITLE "2:cjc093_1270"
    INDEX 01 00:37:52
  TRACK 31 AUDIO
    TITLE "0:"
    INDEX 01 00:39:17
  TRACK 32 AUDIO
    TITLE "3:cjc093_1271"
    INDEX 01 00:39:62
  TRACK 33 AUDIO
    TITLE "0:"
    INDEX 01 00:41:59
  TRACK 34 AUDIO
    TITLE "4:cjc093_1272"
    INDEX 01 00:41:73
  TRACK 35 AUDIO
    TITLE "0:"
    INDEX 01 00:44:40
  TRACK 36 AUDIO
    TITLE "2:cjc093_1273"
    INDEX 01 00:45:53
  TRACK 37 AUDIO
    TITLE "0:"
    INDEX 01 00:46:66
  TRACK 38 AUDIO
    TITLE "3:cjc093_1274"
    INDEX 01 00:47:48
  TRACK 39 AUDIO
    TITLE "0:"
    INDEX 01 00:49:27
  TRACK 40 AUDIO
    TITLE "4:cjc093_1275"
    INDEX 01 00:49:45
  TRACK 41 AUDIO
    TITLE "0:"
    INDEX 01 00:52:61
  TRACK 42 AUDIO
    TITLE "3:cjc093_1276"
    INDEX 01 00:54:17
  TRACK 43 AUDIO
    TITLE "0:"
    INDEX 01 00:56:00
  TRACK 44 AUDIO
    TITLE "4:cjc093_1277"
    INDEX 01 00:56:24
  TRACK 45 AUDIO
    TITLE "0:"
    INDEX 01 00:59:49
  TRACK 46 AUDIO
    TITLE "2:cjc093_1278"
    INDEX 01 01:00:60
  TRACK 47 AUDIO
    TITLE "0:"
    INDEX 01 01:01:66
  TRACK 48 AUDIO
    TITLE "3:cjc093_1279"
    INDEX 01 01:02:18
  TRACK 49 AUDIO
    TITLE "0:"
    INDEX 01 01:03:71
  TRACK 50 AUDIO
    TITLE "4:cjc093_1280"
    INDEX 01 01:04:15
  TRACK 51 AUDIO
    TITLE "0:"
    INDEX 01 01:07:33
  TRACK 52 AUDIO
    TITLE "3:cjc093_1281"
    INDEX 01 01:08:44
  TRACK 53 AUDIO
    TITLE "0:"
    INDEX 01 01:10:22
  TRACK 54 AUDIO
    TITLE "4:cjc093_1282"
    INDEX 01 01:10:51
  TRACK 55 AUDIO
    TITLE "0:"
    INDEX 01 01:13:18
  TRACK 56 AUDIO
    TITLE "2:cjc093_1283"
    INDEX 01 01:14:45
  TRACK 57 AUDIO
    TITLE "0:"
    INDEX 01 01:15:64
  TRACK 58 AUDIO
    TITLE "3:cjc093_1284"
    INDEX 01 01:16:40
  TRACK 59 AUDIO
    TITLE "0:"
    INDEX 01 01:18:21
  TRACK 60 AUDIO
    TITLE "4:cjc093_1285"
    INDEX 01 01:18:39
  TRACK 61 AUDIO
    TITLE "0:"
    INDEX 01 01:22:29
  TRACK 62 AUDIO
    TITLE "2:cjc093_1286"
    INDEX 01 01:23:40
  TRACK 63 AUDIO
    TITLE "0:"
    INDEX 01 01:24:49
  TRACK 64 AUDIO
    TITLE "3:cjc093_1287"
    INDEX 01 01:25:23
  TRACK 65 AUDIO
    TITLE "0:"
    INDEX 01 01:27:12
  TRACK 66 AUDIO
    TITLE "4:cjc093_1288"
    INDEX 01 01:27:42
  TRACK 67 AUDIO
    TITLE "0:"
    INDEX 01 01:30:69
